<svg xmlns="http://www.w3.org/2000/svg" xmlns:xlink="http://www.w3.org/1999/xlink" width="2000" zoomAndPan="magnify" viewBox="0 0 1500 1499.999933" height="2000" preserveAspectRatio="xMidYMid meet" version="1.0"><defs><g/><clipPath id="6be5562a74"><path d="M 823.390625 623.199219 L 948.640625 623.199219 L 948.640625 784.449219 L 823.390625 784.449219 Z M 823.390625 623.199219 " clip-rule="nonzero"/></clipPath><clipPath id="bbabca3f98"><path d="M 150 587.925781 L 251.800781 587.925781 L 251.800781 713.175781 L 150 713.175781 Z M 150 587.925781 " clip-rule="nonzero"/></clipPath><clipPath id="e2e3c42c80"><path d="M 273.574219 694.140625 L 364.03125 694.140625 L 364.03125 784.597656 L 273.574219 784.597656 Z M 273.574219 694.140625 " clip-rule="nonzero"/></clipPath><clipPath id="a3ff745071"><path d="M 400.648438 623.199219 L 547.640625 623.199219 L 547.640625 784.449219 L 400.648438 784.449219 Z M 400.648438 623.199219 " clip-rule="nonzero"/></clipPath></defs><rect x="-150" width="1800" fill="#ffffff" y="-149.999993" height="1799.99992" fill-opacity="1"/><rect x="-150" width="1800" fill="#ffffff" y="-149.999993" height="1799.99992" fill-opacity="1"/><g fill="#000000" fill-opacity="1"><g transform="translate(405.463826, 763.87129)"><g><path d="M 70.390625 3.09375 C 56.566406 3.09375 45.195312 0.335938 36.28125 -5.171875 C 27.375 -10.691406 20.765625 -18.238281 16.453125 -27.8125 C 12.148438 -37.394531 10 -48.3125 10 -60.5625 C 10 -72.6875 12.179688 -83.535156 16.546875 -93.109375 C 20.910156 -102.691406 27.578125 -110.269531 36.546875 -115.84375 C 45.523438 -121.425781 56.925781 -124.21875 70.75 -124.21875 C 89.425781 -124.21875 103.25 -119.910156 112.21875 -111.296875 C 121.1875 -102.691406 126.398438 -90.875 127.859375 -75.84375 L 112.578125 -75.84375 C 111.367188 -87.726562 107.304688 -96.671875 100.390625 -102.671875 C 93.484375 -108.671875 83.484375 -111.671875 70.390625 -111.671875 C 55.347656 -111.671875 44.160156 -107.394531 36.828125 -98.84375 C 29.492188 -90.300781 25.828125 -77.539062 25.828125 -60.5625 C 25.828125 -43.707031 29.429688 -30.972656 36.640625 -22.359375 C 43.859375 -13.753906 54.984375 -9.453125 70.015625 -9.453125 C 83.722656 -9.453125 94.09375 -12.847656 101.125 -19.640625 C 108.15625 -26.429688 112.09375 -35.953125 112.9375 -48.203125 L 128.40625 -48.203125 C 127.800781 -38.015625 125.375 -29.070312 121.125 -21.375 C 116.882812 -13.675781 110.609375 -7.671875 102.296875 -3.359375 C 93.992188 0.941406 83.359375 3.09375 70.390625 3.09375 Z M 70.390625 3.09375 "/></g></g></g><g fill="#000000" fill-opacity="1"><g transform="translate(542.961352, 763.87129)"><g><path d="M 40.5625 2.359375 C 31.832031 2.359375 24.644531 0.117188 19 -4.359375 C 13.363281 -8.847656 10.546875 -15.394531 10.546875 -24 C 10.546875 -31.40625 12.695312 -37.410156 17 -42.015625 C 21.3125 -46.617188 28.375 -49.707031 38.1875 -51.28125 L 61.296875 -55.109375 C 66.140625 -55.953125 69.625 -57.160156 71.75 -58.734375 C 73.875 -60.316406 74.9375 -62.804688 74.9375 -66.203125 C 74.9375 -70.804688 73.421875 -74.6875 70.390625 -77.84375 C 67.359375 -81 61.414062 -82.578125 52.5625 -82.578125 C 43.707031 -82.578125 37.367188 -80.695312 33.546875 -76.9375 C 29.734375 -73.175781 27.582031 -68.328125 27.09375 -62.390625 L 12.734375 -62.390625 C 12.972656 -72.085938 16.457031 -79.785156 23.1875 -85.484375 C 29.914062 -91.179688 39.523438 -94.03125 52.015625 -94.03125 C 64.503906 -94.03125 73.65625 -91.453125 79.46875 -86.296875 C 85.289062 -81.140625 88.203125 -74.441406 88.203125 -66.203125 L 88.203125 -22.546875 C 88.203125 -19.273438 88.265625 -15.820312 88.390625 -12.1875 C 88.515625 -8.550781 88.816406 -4.488281 89.296875 0 L 76.03125 0 C 75.664062 -3.875 75.359375 -7.539062 75.109375 -11 C 74.867188 -14.457031 74.75 -17.882812 74.75 -21.28125 C 73.65625 -17.644531 71.742188 -14.003906 69.015625 -10.359375 C 66.285156 -6.722656 62.617188 -3.691406 58.015625 -1.265625 C 53.410156 1.148438 47.59375 2.359375 40.5625 2.359375 Z M 43.46875 -9.09375 C 50.625 -9.09375 56.535156 -10.726562 61.203125 -14 C 65.867188 -17.28125 69.320312 -21.523438 71.5625 -26.734375 C 73.8125 -31.953125 74.9375 -37.410156 74.9375 -43.109375 L 74.9375 -50.921875 C 72.632812 -49.347656 70.207031 -48.101562 67.65625 -47.1875 C 65.113281 -46.28125 62.082031 -45.460938 58.5625 -44.734375 L 43.46875 -41.65625 C 37.28125 -40.4375 32.703125 -38.523438 29.734375 -35.921875 C 26.765625 -33.316406 25.28125 -29.523438 25.28125 -24.546875 C 25.28125 -19.335938 26.976562 -15.457031 30.375 -12.90625 C 33.769531 -10.363281 38.132812 -9.09375 43.46875 -9.09375 Z M 43.46875 -9.09375 "/></g></g></g><g fill="#000000" fill-opacity="1"><g transform="translate(642.628877, 763.87129)"><g><path d="M 61.109375 -92.203125 L 64.390625 -92.203125 L 64.390625 -77.84375 L 60.5625 -77.84375 C 51.59375 -78.207031 44.742188 -76.445312 40.015625 -72.5625 C 35.285156 -68.6875 32.070312 -63.351562 30.375 -56.5625 C 28.675781 -49.769531 27.828125 -42.070312 27.828125 -33.46875 L 27.828125 0 L 13.28125 0 L 13.28125 -90.9375 L 27.828125 -90.9375 L 27.828125 -66.9375 C 30.617188 -74.445312 34.710938 -80.535156 40.109375 -85.203125 C 45.503906 -89.867188 52.503906 -92.203125 61.109375 -92.203125 Z M 61.109375 -92.203125 "/></g></g></g><g fill="#000000" fill-opacity="1"><g transform="translate(712.650737, 763.87129)"><g><path d="M 84.9375 -127.3125 L 99.484375 -127.3125 L 99.484375 0 L 84.9375 0 L 84.9375 -17.453125 C 81.90625 -11.035156 77.507812 -6.035156 71.75 -2.453125 C 65.988281 1.117188 58.925781 2.90625 50.5625 2.90625 C 41.101562 2.90625 33.28125 0.816406 27.09375 -3.359375 C 20.914062 -7.546875 16.335938 -13.304688 13.359375 -20.640625 C 10.390625 -27.972656 8.90625 -36.25 8.90625 -45.46875 C 8.90625 -54.800781 10.390625 -63.101562 13.359375 -70.375 C 16.335938 -77.65625 20.914062 -83.382812 27.09375 -87.5625 C 33.28125 -91.75 41.101562 -93.84375 50.5625 -93.84375 C 58.925781 -93.84375 65.988281 -92.082031 71.75 -88.5625 C 77.507812 -85.050781 81.90625 -80.082031 84.9375 -73.65625 Z M 53.46875 -8.90625 C 63.164062 -8.90625 70.832031 -11.785156 76.46875 -17.546875 C 82.113281 -23.304688 84.9375 -32.613281 84.9375 -45.46875 C 84.9375 -58.320312 82.113281 -67.628906 76.46875 -73.390625 C 70.832031 -79.148438 63.164062 -82.03125 53.46875 -82.03125 C 43.164062 -82.03125 35.617188 -79 30.828125 -72.9375 C 26.035156 -66.875 23.640625 -57.71875 23.640625 -45.46875 C 23.640625 -33.34375 26.035156 -24.21875 30.828125 -18.09375 C 35.617188 -11.96875 43.164062 -8.90625 53.46875 -8.90625 Z M 53.46875 -8.90625 "/></g></g></g><g fill="#000000" fill-opacity="1"><g transform="translate(825.049515, 763.87129)"><g><path d="M 9.453125 -41.46875 L 24.1875 -41.46875 C 24.3125 -35.28125 25.582031 -29.726562 28 -24.8125 C 30.425781 -19.90625 34.398438 -16.054688 39.921875 -13.265625 C 45.441406 -10.484375 52.867188 -9.09375 62.203125 -9.09375 C 70.566406 -9.09375 77.113281 -10 81.84375 -11.8125 C 86.570312 -13.632812 89.90625 -16.242188 91.84375 -19.640625 C 93.78125 -23.035156 94.75 -27.035156 94.75 -31.640625 C 94.75 -38.066406 92.988281 -42.976562 89.46875 -46.375 C 85.957031 -49.769531 80.382812 -52.078125 72.75 -53.296875 L 44.203125 -57.65625 C 33.648438 -59.226562 25.882812 -62.617188 20.90625 -67.828125 C 15.9375 -73.046875 13.453125 -80.203125 13.453125 -89.296875 C 13.453125 -95.847656 15.117188 -101.757812 18.453125 -107.03125 C 21.796875 -112.300781 26.859375 -116.484375 33.640625 -119.578125 C 40.429688 -122.671875 49.039062 -124.21875 59.46875 -124.21875 C 75.351562 -124.21875 87.265625 -120.578125 95.203125 -113.296875 C 103.148438 -106.023438 107.546875 -96.570312 108.390625 -84.9375 L 93.84375 -84.9375 C 93 -93.175781 89.878906 -99.8125 84.484375 -104.84375 C 79.085938 -109.882812 70.691406 -112.40625 59.296875 -112.40625 C 48.617188 -112.40625 40.851562 -110.3125 36 -106.125 C 31.15625 -101.9375 28.734375 -96.453125 28.734375 -89.671875 C 28.734375 -84.941406 30.066406 -80.847656 32.734375 -77.390625 C 35.398438 -73.929688 40.128906 -71.65625 46.921875 -70.5625 L 77.109375 -66.015625 C 87.898438 -64.316406 96.082031 -60.921875 101.65625 -55.828125 C 107.238281 -50.742188 110.03125 -43.347656 110.03125 -33.640625 C 110.03125 -22.128906 106.269531 -13.1875 98.75 -6.8125 C 91.238281 -0.445312 79.054688 2.734375 62.203125 2.734375 C 49.109375 2.734375 38.707031 0.703125 31 -3.359375 C 23.300781 -7.421875 17.785156 -12.816406 14.453125 -19.546875 C 11.117188 -26.273438 9.453125 -33.582031 9.453125 -41.46875 Z M 9.453125 -41.46875 "/></g></g></g><g fill="#000000" fill-opacity="1"><g transform="translate(944.723302, 763.87129)"><g><path d="M 61.84375 -93.84375 C 71.414062 -93.84375 79.265625 -91.75 85.390625 -87.5625 C 91.515625 -83.382812 96.0625 -77.65625 99.03125 -70.375 C 102 -63.101562 103.484375 -54.800781 103.484375 -45.46875 C 103.484375 -36.132812 102 -27.828125 99.03125 -20.546875 C 96.0625 -13.273438 91.515625 -7.546875 85.390625 -3.359375 C 79.265625 0.816406 71.414062 2.90625 61.84375 2.90625 C 53.46875 2.90625 46.429688 1.148438 40.734375 -2.359375 C 35.035156 -5.878906 30.613281 -10.851562 27.46875 -17.28125 L 27.46875 36.375 L 12.90625 36.375 L 12.90625 -90.9375 L 27.46875 -90.9375 L 27.46875 -73.484375 C 30.613281 -79.898438 35.035156 -84.894531 40.734375 -88.46875 C 46.429688 -92.050781 53.46875 -93.84375 61.84375 -93.84375 Z M 58.921875 -8.90625 C 69.347656 -8.90625 76.925781 -11.9375 81.65625 -18 C 86.382812 -24.0625 88.75 -33.21875 88.75 -45.46875 C 88.75 -57.71875 86.382812 -66.875 81.65625 -72.9375 C 76.925781 -79 69.347656 -82.03125 58.921875 -82.03125 C 49.347656 -82.03125 41.710938 -79.148438 36.015625 -73.390625 C 30.316406 -67.628906 27.46875 -58.320312 27.46875 -45.46875 C 27.46875 -32.613281 30.316406 -23.304688 36.015625 -17.546875 C 41.710938 -11.785156 49.347656 -8.90625 58.921875 -8.90625 Z M 58.921875 -8.90625 "/></g></g></g><g fill="#000000" fill-opacity="1"><g transform="translate(1057.122035, 763.87129)"><g><path d="M 54.5625 2.90625 C 44.375 2.90625 35.882812 0.753906 29.09375 -3.546875 C 22.3125 -7.847656 17.222656 -13.664062 13.828125 -21 C 10.429688 -28.34375 8.734375 -36.5625 8.734375 -45.65625 C 8.734375 -54.75 10.429688 -62.929688 13.828125 -70.203125 C 17.222656 -77.472656 22.3125 -83.226562 29.09375 -87.46875 C 35.882812 -91.71875 44.375 -93.84375 54.5625 -93.84375 C 64.75 -93.84375 73.207031 -91.691406 79.9375 -87.390625 C 86.664062 -83.085938 91.726562 -77.296875 95.125 -70.015625 C 98.519531 -62.742188 100.21875 -54.625 100.21875 -45.65625 C 100.21875 -36.5625 98.519531 -28.34375 95.125 -21 C 91.726562 -13.664062 86.664062 -7.847656 79.9375 -3.546875 C 73.207031 0.753906 64.75 2.90625 54.5625 2.90625 Z M 23.46875 -45.46875 C 23.46875 -32.738281 26.070312 -23.460938 31.28125 -17.640625 C 36.5 -11.816406 44.257812 -8.90625 54.5625 -8.90625 C 64.863281 -8.90625 72.59375 -11.816406 77.75 -17.640625 C 82.90625 -23.460938 85.484375 -32.738281 85.484375 -45.46875 C 85.484375 -58.320312 82.90625 -67.628906 77.75 -73.390625 C 72.59375 -79.148438 64.863281 -82.03125 54.5625 -82.03125 C 44.257812 -82.03125 36.5 -79.148438 31.28125 -73.390625 C 26.070312 -67.628906 23.46875 -58.320312 23.46875 -45.46875 Z M 23.46875 -45.46875 "/></g></g></g><g fill="#000000" fill-opacity="1"><g transform="translate(1166.065202, 763.87129)"><g><path d="M 80.9375 0 L 46.5625 -43.828125 L 27.828125 -26.015625 L 27.828125 0 L 13.28125 0 L 13.28125 -127.3125 L 27.828125 -127.3125 L 27.828125 -42.1875 C 29.160156 -43.882812 30.582031 -45.550781 32.09375 -47.1875 C 33.613281 -48.832031 35.101562 -50.320312 36.5625 -51.65625 L 77.484375 -90.9375 L 95.484375 -90.9375 L 95.484375 -90.578125 L 55.65625 -52.5625 L 99.296875 0 Z M 80.9375 0 "/></g></g></g><g fill="#000000" fill-opacity="1"><g transform="translate(1269.370185, 763.87129)"><g><path d="M 54.375 -8.1875 C 63.351562 -8.1875 70.050781 -10.0625 74.46875 -13.8125 C 78.894531 -17.570312 81.773438 -22.304688 83.109375 -28.015625 L 96.390625 -28.015625 C 95.785156 -23.398438 94.054688 -18.695312 91.203125 -13.90625 C 88.359375 -9.125 83.9375 -5.125 77.9375 -1.90625 C 71.9375 1.300781 63.898438 2.90625 53.828125 2.90625 C 43.398438 2.90625 34.851562 0.753906 28.1875 -3.546875 C 21.519531 -7.847656 16.609375 -13.664062 13.453125 -21 C 10.304688 -28.34375 8.734375 -36.5625 8.734375 -45.65625 C 8.734375 -54.75 10.398438 -62.929688 13.734375 -70.203125 C 17.066406 -77.472656 22.066406 -83.226562 28.734375 -87.46875 C 35.398438 -91.71875 43.765625 -93.84375 53.828125 -93.84375 C 62.921875 -93.84375 70.648438 -91.898438 77.015625 -88.015625 C 83.390625 -84.140625 88.242188 -78.804688 91.578125 -72.015625 C 94.910156 -65.234375 96.578125 -57.414062 96.578125 -48.5625 C 96.578125 -47.34375 96.578125 -46.25 96.578125 -45.28125 C 96.578125 -44.3125 96.457031 -43.28125 96.21875 -42.1875 L 23.09375 -42.1875 C 23.695312 -29.707031 26.785156 -20.921875 32.359375 -15.828125 C 37.941406 -10.734375 45.28125 -8.1875 54.375 -8.1875 Z M 54.015625 -82.75 C 45.410156 -82.75 38.410156 -80.503906 33.015625 -76.015625 C 27.617188 -71.535156 24.4375 -63.898438 23.46875 -53.109375 L 82.390625 -53.109375 C 82.023438 -63.535156 79.328125 -71.082031 74.296875 -75.75 C 69.265625 -80.414062 62.503906 -82.75 54.015625 -82.75 Z M 54.015625 -82.75 "/></g></g></g><g clip-path="url(#6be5562a74)"><path stroke-linecap="butt" transform="matrix(0.75, 0, 0, 0.75, 823.389634, 623.198782)" fill="none" stroke-linejoin="miter" d="M 0.00132076 0.000581904 L 167.407585 0.000581904 L 167.407585 215.1881 L 0.00132076 215.1881 Z M 0.00132076 0.000581904 " stroke="#000000" stroke-width="18" stroke-opacity="1" stroke-miterlimit="4"/></g><path stroke-linecap="butt" transform="matrix(0, 0.75, -0.75, 0, 318.801011, 583.70741)" fill="none" stroke-linejoin="miter" d="M -0.000504631 5.500306 L 91.020337 5.500306 " stroke="#000000" stroke-width="11" stroke-opacity="1" stroke-miterlimit="4"/><g clip-path="url(#bbabca3f98)"><path stroke-linecap="butt" transform="matrix(0.75, 0, 0, 0.75, 150.00002, 587.925097)" fill="none" stroke-linejoin="miter" d="M -0.00002724 0.000911853 L 135.734368 0.000911853 L 135.734368 167.094687 L -0.00002724 167.094687 Z M -0.00002724 0.000911853 " stroke="#000000" stroke-width="18" stroke-opacity="1" stroke-miterlimit="4"/></g><g clip-path="url(#e2e3c42c80)"><path stroke-linecap="butt" transform="matrix(0.75, 0, 0, 0.75, 273.574287, 694.141336)" fill="none" stroke-linejoin="miter" d="M -0.0000904482 -0.000948282 L 120.609295 -0.000948282 L 120.609295 120.608437 L -0.0000904482 120.608437 Z M -0.0000904482 -0.000948282 " stroke="#000000" stroke-width="18" stroke-opacity="1" stroke-miterlimit="4"/></g><path stroke-linecap="butt" transform="matrix(-0.75, 0, 0, -0.75, 318.798287, 654.71066)" fill="none" stroke-linejoin="miter" d="M 0.00188225 5.49963 L 89.335223 5.49963 " stroke="#000000" stroke-width="11" stroke-opacity="1" stroke-miterlimit="4"/><path stroke-linecap="butt" transform="matrix(0.75, 0, 0, 0.75, 314.67862, 583.800098)" fill="none" stroke-linejoin="miter" d="M 0.00142354 5.500912 L 218.438942 5.500912 " stroke="#000000" stroke-width="11" stroke-opacity="1" stroke-miterlimit="4"/><path stroke-linecap="butt" transform="matrix(0.000000001309, -0.75, 0.75, 0.000000001309, 470.163617, 623.198662)" fill="none" stroke-linejoin="miter" d="M -0.000741895 5.500595 L 47.030512 5.500595 " stroke="#000000" stroke-width="11" stroke-opacity="1" stroke-miterlimit="4"/><g clip-path="url(#a3ff745071)"><path stroke-linecap="butt" transform="matrix(0.75, 0, 0, 0.75, 400.642235, 623.198782)" fill="none" stroke-linejoin="miter" d="M 0.00827021 0.000581904 L 196.383275 0.000581904 L 196.383275 215.188087 L 0.00827021 215.188087 Z M 0.00827021 0.000581904 " stroke="#000000" stroke-width="18" stroke-opacity="1" stroke-miterlimit="4"/></g><path stroke-linecap="butt" transform="matrix(0.75, 0, 0, 0.75, 314.67862, 818.057838)" fill="none" stroke-linejoin="miter" d="M 0.00142354 5.501009 L 766.834823 5.501009 " stroke="#000000" stroke-width="11" stroke-opacity="1" stroke-miterlimit="4"/><path stroke-linecap="butt" transform="matrix(0, -0.75, 0.75, 0, 882.044261, 826.380149)" fill="none" stroke-linejoin="miter" d="M 0.00165676 5.498277 L 55.709995 5.498277 " stroke="#000000" stroke-width="11" stroke-opacity="1" stroke-miterlimit="4"/><path stroke-linecap="butt" transform="matrix(0, -0.75, 0.75, 0, 314.678267, 822.182477)" fill="none" stroke-linejoin="miter" d="M -0.00148876 5.501894 L 50.107891 5.501894 " stroke="#000000" stroke-width="11" stroke-opacity="1" stroke-miterlimit="4"/><path stroke-linecap="butt" transform="matrix(-0.75, 0, 0, -0.75, 273.567665, 743.495724)" fill="none" stroke-linejoin="miter" d="M 0.00167832 5.499507 L 102.52252 5.499507 " stroke="#000000" stroke-width="11" stroke-opacity="1" stroke-miterlimit="4"/><path stroke-linecap="butt" transform="matrix(0, 0.75, -0.75, 0, 205.024439, 713.247927)" fill="none" stroke-linejoin="miter" d="M -0.00244375 5.501336 L 34.830893 5.501336 " stroke="#000000" stroke-width="11" stroke-opacity="1" stroke-miterlimit="4"/></svg>